<?xml version="1.0" encoding="UTF-8" standalone="no"?>
<!-- Created with Inkscape (http://www.inkscape.org/) -->

<svg
   width="500"
   height="500"
   viewBox="0 0 132.29166 132.29167"
   version="1.1"
   id="svg1"
   xmlns:xlink="http://www.w3.org/1999/xlink"
   xmlns="http://www.w3.org/2000/svg"
   xmlns:svg="http://www.w3.org/2000/svg">
  <defs
     id="defs1">
    <linearGradient
       id="linearGradient21">
      <stop
         style="stop-color:#0d0cff;stop-opacity:1;"
         offset="0"
         id="stop20" />
      <stop
         style="stop-color:#ff34a0;stop-opacity:1;"
         offset="1"
         id="stop21" />
    </linearGradient>
    <linearGradient
       id="linearGradient4">
      <stop
         style="stop-color:#ffc700;stop-opacity:1;"
         offset="0"
         id="stop4" />
      <stop
         style="stop-color:#c71e32;stop-opacity:1;"
         offset="1"
         id="stop5" />
    </linearGradient>
    <linearGradient
       xlink:href="#linearGradient21"
       id="linearGradient5"
       x1="0.66307133"
       y1="4.4846206"
       x2="132.95474"
       y2="136.77629"
       gradientUnits="userSpaceOnUse"
       gradientTransform="translate(-0.66307134,-4.4846206)" />
    <linearGradient
       xlink:href="#linearGradient4"
       id="linearGradient6"
       gradientUnits="userSpaceOnUse"
       gradientTransform="rotate(180,66.304714,67.79269)"
       x1="5.4255714"
       y1="1.3096207"
       x2="137.71724"
       y2="133.60129" />
  </defs>
  <g
     id="layer1">
    <path
       id="rect1"
       style="fill:url(#linearGradient5);fill-opacity:1;stroke-width:9.22311;stroke-linecap:round"
       d="M 13.056504,8.7118386 V 86.670172 A 13.975873,13.975873 66.765606 0 0 17.4065,96.80267 l 17.758342,16.87043 a 15.027225,15.027225 21.765606 0 0 10.349996,4.1325 h 77.958342 a 6,6 135 0 0 6,-6 V 93.378505 a 6.9180581,6.9180581 49.065051 0 0 -5.9397,-6.848528 L 61.329536,77.643699 A 8,8 45 0 1 54.541311,70.855474 L 45.655033,8.6515356 A 6.9180582,6.9180582 40.934949 0 0 38.806505,2.7118386 H 19.056504 a 6,6 135 0 0 -6,6 z" />
    <path
       id="path6"
       style="fill:url(#linearGradient6);fill-opacity:1;stroke-width:9.22311;stroke-linecap:round"
       d="M 118.88984,122.38894 V 44.430592 a 13.975872,13.975872 66.765604 0 0 -4.35,-10.132497 L 96.781509,17.42767 A 15.027226,15.027226 21.765604 0 0 86.431513,13.295173 H 8.4731714 a 6,6 135 0 0 -6,6 v 18.427086 a 6.9180581,6.9180581 49.065051 0 0 5.939697,6.848528 l 62.2039466,8.886278 a 7.9999998,7.9999998 45 0 1 6.788225,6.788225 l 8.886278,62.20395 a 6.918058,6.918058 40.934949 0 0 6.848528,5.9397 h 19.749994 a 6,6 135 0 0 6,-6 z" />
  </g>
</svg>
