<?xml version="1.0" encoding="UTF-8" standalone="no"?>
<!-- Created with Inkscape (http://www.inkscape.org/) -->

<svg
   width="500"
   height="500"
   viewBox="0 0 132.29166 132.29167"
   version="1.1"
   id="svg1"
   xmlns="http://www.w3.org/2000/svg"
   xmlns:svg="http://www.w3.org/2000/svg">
  <defs
     id="defs1" />
  <g
     id="layer1">
    <path
       id="rect1"
       style="fill:#ffffff;fill-opacity:0;stroke:#211a14;stroke-width:7.58106;stroke-linecap:round;stroke-dasharray:none;stroke-opacity:1"
       d="M 19.056622,2.7118075 A 6,6 0 0 0 13.056328,8.7121018 V 13.295092 H 8.4733373 a 6,6 0 0 0 -6.0002944,6.000295 v 18.426726 a 6.9180581,6.9180581 0 0 0 5.9398827,6.848426 l 4.6434024,0.663343 v 41.436442 a 13.975873,13.975873 0 0 0 4.350228,10.132567 l 17.758052,16.870239 a 15.027225,15.027225 0 0 0 10.350523,4.13227 h 40.112717 l 0.663343,4.644 a 6.918058,6.918058 0 0 0 6.848426,5.93929 h 19.750453 a 6,6 0 0 0 5.9997,-5.99971 v -4.58358 h 4.58358 a 6,6 0 0 0 5.99971,-5.9997 V 93.378382 a 6.9180581,6.9180581 0 0 0 -5.9393,-6.848426 l -4.64399,-0.663343 V 44.430763 A 13.975872,13.975872 0 0 0 114.54013,34.298196 L 96.78149,17.427957 A 15.027226,15.027226 0 0 0 86.431559,13.295092 H 46.31825 L 45.654907,8.6516902 A 6.9180582,6.9180582 0 0 0 38.806481,2.7118075 Z m 32.612201,48.0384835 18.947924,2.706677 a 7.9999998,7.9999998 0 0 1 6.788015,6.788607 l 2.87192,20.104628 -18.947331,-2.706677 a 8,8 0 0 1 -6.788015,-6.788014 z"
       transform="matrix(0.87251374,0,0,0.87251374,8.1940589,7.9598953)" />
  </g>
</svg>
